<svg width="37" height="32" viewBox="0 0 37 32" fill="none" xmlns="http://www.w3.org/2000/svg">
<path d="M15.5108 9.56465C14.955 9.41769 14.3781 9.34052 13.7867 9.34052C10.0653 9.34052 6.93577 12.418 5.9793 16.608C3.24146 17.2475 1.17163 20.1941 1.17163 23.7379C1.17163 27.7501 3.82137 31 7.09025 31C7.45473 31 7.80956 30.9557 8.15654 30.8765C8.28991 30.9014 8.42629 30.9195 8.56689 30.9195H31.1232C31.4165 30.9195 31.6995 30.8604 31.965 30.7571C34.3142 30.5618 36.1716 28.1688 36.1716 25.2364C36.1716 22.1764 34.1507 19.6962 31.6578 19.6962C31.1534 19.6962 30.67 19.8022 30.218 19.9908C29.7147 16.098 26.9703 13.1259 23.6573 13.1259C22.579 13.1259 21.5615 13.4433 20.6606 14.003" stroke="#9C9C9C" stroke-width="1.5" stroke-miterlimit="10" stroke-linecap="round" stroke-linejoin="round"/>
<path d="M12.3819 6.78646C13.9599 5.03033 18.2776 1 18.2776 1C18.2776 1 22.5935 5.04442 24.1721 6.79988" stroke="#9C9C9C" stroke-width="1.5" stroke-miterlimit="10" stroke-linecap="round" stroke-linejoin="round"/>
<path d="M18.2772 1V25.137" stroke="#9C9C9C" stroke-width="1.5" stroke-miterlimit="10" stroke-linecap="round" stroke-linejoin="round"/>
</svg>
