<svg width="217" height="150" viewBox="0 0 217 150" fill="none" xmlns="http://www.w3.org/2000/svg">
<path fill-rule="evenodd" clip-rule="evenodd" d="M104 149.999C145.421 149.999 178.999 116.421 178.999 74.9997C178.999 33.5785 145.421 0 104 0C62.5785 0 29 33.5785 29 74.9997C29 116.421 62.5785 149.999 104 149.999ZM104 126C132.167 126 155 103.166 155 74.9999C155 46.8335 132.167 24.0001 104 24.0001C75.8339 24.0001 53.0005 46.8335 53.0005 74.9999C53.0005 103.166 75.8339 126 104 126Z" fill="#5397EF"/>
<path fill-rule="evenodd" clip-rule="evenodd" d="M104 149.999C145.421 149.999 179 116.421 179 74.9997C179 33.5785 145.421 0 104 0C62.5789 0 29.0004 33.5785 29.0004 74.9997C29.0004 116.421 62.5789 149.999 104 149.999ZM104.001 126C132.167 126 155 103.166 155 74.9999C155 46.8335 132.167 24.0001 104.001 24.0001C75.8341 24.0001 53.0007 46.8335 53.0007 74.9999C53.0007 103.166 75.8341 126 104.001 126Z" fill="#98C5FF"/>
<path fill-rule="evenodd" clip-rule="evenodd" d="M105.545 125.977L106.543 149.957C146.785 148.615 178.996 115.569 178.996 74.9997C178.996 33.5785 145.418 0 103.997 0C103.797 0 103.598 0.000779396 103.399 0.00233531V24.0036C103.598 24.0013 103.797 24.0001 103.997 24.0001C132.164 24.0001 154.997 46.8335 154.997 74.9999C154.997 102.649 132.995 125.159 105.545 125.977Z" fill="#5397EF"/>
<path d="M192.4 78.16V77.64L196.11 73H196.91L193.23 77.64L192.84 77.52H198.47V78.16H192.4ZM196.35 80V78.16L196.37 77.52V75.9H197.07V80H196.35ZM201.233 72.94C201.853 72.94 202.377 73.08 202.803 73.36C203.23 73.6333 203.553 74.03 203.773 74.55C203.993 75.07 204.103 75.7 204.103 76.44C204.103 77.2267 203.967 77.89 203.693 78.43C203.427 78.97 203.053 79.3767 202.573 79.65C202.093 79.9233 201.537 80.06 200.903 80.06C200.59 80.06 200.29 80.03 200.003 79.97C199.723 79.91 199.47 79.8133 199.243 79.68L199.533 79.1C199.713 79.22 199.92 79.3067 200.153 79.36C200.393 79.4067 200.64 79.43 200.893 79.43C201.647 79.43 202.247 79.19 202.693 78.71C203.147 78.23 203.373 77.5133 203.373 76.56C203.373 76.4067 203.363 76.2233 203.343 76.01C203.33 75.7967 203.293 75.5833 203.233 75.37L203.483 75.56C203.417 75.9067 203.273 76.2033 203.053 76.45C202.84 76.69 202.573 76.8733 202.253 77C201.94 77.1267 201.59 77.19 201.203 77.19C200.743 77.19 200.333 77.1033 199.973 76.93C199.62 76.7567 199.343 76.5133 199.143 76.2C198.943 75.8867 198.843 75.5167 198.843 75.09C198.843 74.65 198.947 74.27 199.153 73.95C199.36 73.63 199.643 73.3833 200.003 73.21C200.37 73.03 200.78 72.94 201.233 72.94ZM201.263 73.55C200.93 73.55 200.633 73.6133 200.373 73.74C200.12 73.86 199.92 74.0333 199.773 74.26C199.627 74.4867 199.553 74.7567 199.553 75.07C199.553 75.53 199.71 75.8967 200.023 76.17C200.343 76.4433 200.773 76.58 201.313 76.58C201.673 76.58 201.987 76.5133 202.253 76.38C202.527 76.2467 202.737 76.0633 202.883 75.83C203.037 75.5967 203.113 75.3367 203.113 75.05C203.113 74.79 203.043 74.5467 202.903 74.32C202.763 74.0933 202.557 73.91 202.283 73.77C202.01 73.6233 201.67 73.55 201.263 73.55ZM206.087 80L210.867 73H211.457L206.677 80H206.087ZM206.627 76.75C206.314 76.75 206.037 76.6733 205.797 76.52C205.557 76.36 205.37 76.1367 205.237 75.85C205.11 75.5633 205.047 75.23 205.047 74.85C205.047 74.47 205.11 74.1367 205.237 73.85C205.37 73.5633 205.557 73.3433 205.797 73.19C206.037 73.03 206.314 72.95 206.627 72.95C206.94 72.95 207.214 73.03 207.447 73.19C207.687 73.3433 207.874 73.5633 208.007 73.85C208.14 74.1367 208.207 74.47 208.207 74.85C208.207 75.23 208.14 75.5633 208.007 75.85C207.874 76.1367 207.687 76.36 207.447 76.52C207.214 76.6733 206.94 76.75 206.627 76.75ZM206.627 76.3C206.954 76.3 207.214 76.1733 207.407 75.92C207.607 75.66 207.707 75.3033 207.707 74.85C207.707 74.3967 207.607 74.0433 207.407 73.79C207.214 73.53 206.954 73.4 206.627 73.4C206.294 73.4 206.03 73.53 205.837 73.79C205.644 74.0433 205.547 74.3967 205.547 74.85C205.547 75.3033 205.644 75.66 205.837 75.92C206.03 76.1733 206.294 76.3 206.627 76.3ZM210.917 80.05C210.61 80.05 210.337 79.9733 210.097 79.82C209.857 79.66 209.67 79.4367 209.537 79.15C209.404 78.8633 209.337 78.53 209.337 78.15C209.337 77.77 209.404 77.4367 209.537 77.15C209.67 76.8633 209.857 76.6433 210.097 76.49C210.337 76.33 210.61 76.25 210.917 76.25C211.237 76.25 211.514 76.33 211.747 76.49C211.987 76.6433 212.17 76.8633 212.297 77.15C212.43 77.4367 212.497 77.77 212.497 78.15C212.497 78.53 212.43 78.8633 212.297 79.15C212.17 79.4367 211.987 79.66 211.747 79.82C211.514 79.9733 211.237 80.05 210.917 80.05ZM210.917 79.6C211.244 79.6 211.504 79.4733 211.697 79.22C211.897 78.96 211.997 78.6033 211.997 78.15C211.997 77.6967 211.897 77.3433 211.697 77.09C211.504 76.83 211.244 76.7 210.917 76.7C210.59 76.7 210.327 76.83 210.127 77.09C209.934 77.3433 209.837 77.6967 209.837 78.15C209.837 78.6033 209.934 78.96 210.127 79.22C210.327 79.4733 210.59 79.6 210.917 79.6Z" fill="#4F4F4F"/>
<path d="M2.73 80.06C2.23 80.06 1.75333 79.98 1.3 79.82C0.846667 79.6533 0.486667 79.4333 0.22 79.16L0.57 78.59C0.79 78.8233 1.09 79.0167 1.47 79.17C1.85667 79.3233 2.27333 79.4 2.72 79.4C3.31333 79.4 3.76333 79.27 4.07 79.01C4.38333 78.7433 4.54 78.3967 4.54 77.97C4.54 77.67 4.46667 77.4133 4.32 77.2C4.18 76.98 3.94 76.81 3.6 76.69C3.26 76.57 2.79333 76.51 2.2 76.51H0.71L1.07 73H4.9V73.64H1.36L1.73 73.29L1.42 76.23L1.05 75.87H2.36C3.06667 75.87 3.63333 75.9567 4.06 76.13C4.48667 76.3033 4.79333 76.5467 4.98 76.86C5.17333 77.1667 5.27 77.5267 5.27 77.94C5.27 78.3333 5.17667 78.6933 4.99 79.02C4.80333 79.34 4.52333 79.5933 4.15 79.78C3.77667 79.9667 3.30333 80.06 2.73 80.06ZM7.40406 80L7.40406 73.3L7.72406 73.64H5.75406V73H8.12406V80H7.40406ZM10.7373 80L15.5173 73H16.1073L11.3273 80H10.7373ZM11.2773 76.75C10.964 76.75 10.6873 76.6733 10.4473 76.52C10.2073 76.36 10.0207 76.1367 9.88734 75.85C9.76068 75.5633 9.69734 75.23 9.69734 74.85C9.69734 74.47 9.76068 74.1367 9.88734 73.85C10.0207 73.5633 10.2073 73.3433 10.4473 73.19C10.6873 73.03 10.964 72.95 11.2773 72.95C11.5907 72.95 11.864 73.03 12.0973 73.19C12.3373 73.3433 12.524 73.5633 12.6573 73.85C12.7907 74.1367 12.8573 74.47 12.8573 74.85C12.8573 75.23 12.7907 75.5633 12.6573 75.85C12.524 76.1367 12.3373 76.36 12.0973 76.52C11.864 76.6733 11.5907 76.75 11.2773 76.75ZM11.2773 76.3C11.604 76.3 11.864 76.1733 12.0573 75.92C12.2573 75.66 12.3573 75.3033 12.3573 74.85C12.3573 74.3967 12.2573 74.0433 12.0573 73.79C11.864 73.53 11.604 73.4 11.2773 73.4C10.944 73.4 10.6807 73.53 10.4873 73.79C10.294 74.0433 10.1973 74.3967 10.1973 74.85C10.1973 75.3033 10.294 75.66 10.4873 75.92C10.6807 76.1733 10.944 76.3 11.2773 76.3ZM15.5673 80.05C15.2607 80.05 14.9873 79.9733 14.7473 79.82C14.5073 79.66 14.3207 79.4367 14.1873 79.15C14.054 78.8633 13.9873 78.53 13.9873 78.15C13.9873 77.77 14.054 77.4367 14.1873 77.15C14.3207 76.8633 14.5073 76.6433 14.7473 76.49C14.9873 76.33 15.2607 76.25 15.5673 76.25C15.8873 76.25 16.164 76.33 16.3973 76.49C16.6373 76.6433 16.8207 76.8633 16.9473 77.15C17.0807 77.4367 17.1473 77.77 17.1473 78.15C17.1473 78.53 17.0807 78.8633 16.9473 79.15C16.8207 79.4367 16.6373 79.66 16.3973 79.82C16.164 79.9733 15.8873 80.05 15.5673 80.05ZM15.5673 79.6C15.894 79.6 16.154 79.4733 16.3473 79.22C16.5473 78.96 16.6473 78.6033 16.6473 78.15C16.6473 77.6967 16.5473 77.3433 16.3473 77.09C16.154 76.83 15.894 76.7 15.5673 76.7C15.2407 76.7 14.9773 76.83 14.7773 77.09C14.584 77.3433 14.4873 77.6967 14.4873 78.15C14.4873 78.6033 14.584 78.96 14.7773 79.22C14.9773 79.4733 15.2407 79.6 15.5673 79.6Z" fill="#4F4F4F"/>
</svg>
