<svg width="24" height="25" viewBox="0 0 24 25" fill="none" xmlns="http://www.w3.org/2000/svg">
<mask id="mask0_2921_3152" style="mask-type:alpha" maskUnits="userSpaceOnUse" x="6" y="4" width="14" height="21">
<path d="M19.7243 18.877C19.4808 20.2299 18.744 22.1455 17.8805 23.0383C16.9549 23.9955 16.0871 24.395 14.7674 24.6054C14.0178 24.7248 11.8309 24.7368 11.0376 24.5582C9.15933 24.1356 7.81274 22.1137 6.89728 20.5032C6.11021 19.1185 5.81426 17.3997 6.11606 15.723C6.76901 12.096 12.7415 4.11077 13.5321 4.28869C12.5173 8.47191 20.2503 14.1989 19.7243 18.877Z" fill="#010101"/>
</mask>
<g mask="url(#mask0_2921_3152)">
<path d="M13.5632 3.43125L2.50781 15.0127L5.54282 18.1921L16.5982 6.61066L13.5632 3.43125Z" fill="white"/>
<path d="M17.7156 8.07547L8.03255 18.2192C7.67074 18.5983 7.67074 19.2128 8.03255 19.5918C8.39435 19.9708 8.98096 19.9708 9.34276 19.5918L19.0258 9.44802C19.3876 9.069 19.3876 8.45448 19.0258 8.07546C18.664 7.69644 18.0774 7.69644 17.7156 8.07547Z" fill="white"/>
<path d="M12.62 20.0331C12.2582 19.6541 12.2582 19.0395 12.62 18.6605L19.9674 10.9635L21.2776 12.336L13.9302 20.0331C13.5684 20.4121 12.9818 20.4121 12.62 20.0331Z" fill="white"/>
<path d="M14.1839 23.8406C13.8222 23.4616 13.8222 22.847 14.1839 22.468L21.5314 14.771L22.8416 16.1435L15.4941 23.8406C15.1324 24.2196 14.5457 24.2196 14.1839 23.8406Z" fill="white"/>
</g>
</svg>
