<svg width="292" height="206" viewBox="0 0 292 206" fill="none" xmlns="http://www.w3.org/2000/svg">
<path d="M63 166L63 34" stroke="#E5E5E5" stroke-dasharray="6 6"/>
<path d="M99.1187 166L99.1187 34" stroke="#E5E5E5" stroke-dasharray="6 6"/>
<path d="M134.109 166L134.109 34" stroke="#E5E5E5" stroke-dasharray="6 6"/>
<path d="M171.356 166L171.356 34" stroke="#E5E5E5" stroke-dasharray="6 6"/>
<path d="M207.475 166L207.475 34" stroke="#E5E5E5" stroke-dasharray="6 6"/>
<path d="M243.594 166L243.594 34" stroke="#E5E5E5" stroke-dasharray="6 6"/>
<path d="M279.713 166V34" stroke="#E5E5E5" stroke-dasharray="6 6"/>
<path d="M30.6466 155.713V155.155L34.3276 153.706V153.994L30.6466 152.545V151.987L34.5616 153.553V154.147L30.6466 155.713ZM36.7594 157V150.97L37.0474 151.276H35.2744V150.7H37.4074V157H36.7594ZM41.4243 157.054C40.9383 157.054 40.5063 156.928 40.1283 156.676C39.7503 156.418 39.4533 156.052 39.2373 155.578C39.0213 155.098 38.9133 154.522 38.9133 153.85C38.9133 153.178 39.0213 152.605 39.2373 152.131C39.4533 151.651 39.7503 151.285 40.1283 151.033C40.5063 150.775 40.9383 150.646 41.4243 150.646C41.9103 150.646 42.3423 150.775 42.7203 151.033C43.0983 151.285 43.3953 151.651 43.6113 152.131C43.8333 152.605 43.9443 153.178 43.9443 153.85C43.9443 154.522 43.8333 155.098 43.6113 155.578C43.3953 156.052 43.0983 156.418 42.7203 156.676C42.3423 156.928 41.9103 157.054 41.4243 157.054ZM41.4243 156.46C41.7963 156.46 42.1203 156.361 42.3963 156.163C42.6723 155.959 42.8883 155.665 43.0443 155.281C43.2003 154.891 43.2783 154.414 43.2783 153.85C43.2783 153.286 43.2003 152.812 43.0443 152.428C42.8883 152.038 42.6723 151.744 42.3963 151.546C42.1203 151.342 41.7963 151.24 41.4243 151.24C41.0643 151.24 40.7433 151.342 40.4613 151.546C40.1793 151.744 39.9603 152.038 39.8043 152.428C39.6483 152.812 39.5703 153.286 39.5703 153.85C39.5703 154.414 39.6483 154.891 39.8043 155.281C39.9603 155.665 40.1793 155.959 40.4613 156.163C40.7433 156.361 41.0643 156.46 41.4243 156.46ZM45.4303 157V150.7H45.9793L48.8593 155.614H48.5713L51.4243 150.7H51.9733V157H51.3343V151.699H51.4873L48.8593 156.199H48.5443L45.8983 151.699H46.0693V157H45.4303Z" fill="#7F7F7F"/>
<path d="M40.5206 120.713L36.6056 119.147V118.553L40.5206 116.987V117.545L36.8396 118.994V118.706L40.5206 120.155V120.713ZM42.7183 122V115.97L43.0063 116.276H41.2333V115.7H43.3663V122H42.7183ZM45.4303 122V115.7H45.9793L48.8593 120.614H48.5713L51.4243 115.7H51.9733V122H51.3343V116.699H51.4873L48.8593 121.199H48.5443L45.8983 116.699H46.0693V122H45.4303Z" fill="#7F7F7F"/>
<path d="M29.2656 87.054C28.8156 87.054 28.3866 86.982 27.9786 86.838C27.5706 86.688 27.2466 86.49 27.0066 86.244L27.3216 85.731C27.5196 85.941 27.7896 86.115 28.1316 86.253C28.4796 86.391 28.8546 86.46 29.2566 86.46C29.7906 86.46 30.1956 86.343 30.4716 86.109C30.7536 85.869 30.8946 85.557 30.8946 85.173C30.8946 84.903 30.8286 84.672 30.6966 84.48C30.5706 84.282 30.3546 84.129 30.0486 84.021C29.7426 83.913 29.3226 83.859 28.7886 83.859H27.4476L27.7716 80.7H31.2186V81.276H28.0326L28.3656 80.961L28.0866 83.607L27.7536 83.283H28.9326C29.5686 83.283 30.0786 83.361 30.4626 83.517C30.8466 83.673 31.1226 83.892 31.2906 84.174C31.4646 84.45 31.5516 84.774 31.5516 85.146C31.5516 85.5 31.4676 85.824 31.2996 86.118C31.1316 86.406 30.8796 86.634 30.5436 86.802C30.2076 86.97 29.7816 87.054 29.2656 87.054ZM32.4463 84.84V84.282H34.8043V84.84H32.4463ZM36.7594 87V80.97L37.0474 81.276H35.2744V80.7H37.4074V87H36.7594ZM41.4243 87.054C40.9383 87.054 40.5063 86.928 40.1283 86.676C39.7503 86.418 39.4533 86.052 39.2373 85.578C39.0213 85.098 38.9133 84.522 38.9133 83.85C38.9133 83.178 39.0213 82.605 39.2373 82.131C39.4533 81.651 39.7503 81.285 40.1283 81.033C40.5063 80.775 40.9383 80.646 41.4243 80.646C41.9103 80.646 42.3423 80.775 42.7203 81.033C43.0983 81.285 43.3953 81.651 43.6113 82.131C43.8333 82.605 43.9443 83.178 43.9443 83.85C43.9443 84.522 43.8333 85.098 43.6113 85.578C43.3953 86.052 43.0983 86.418 42.7203 86.676C42.3423 86.928 41.9103 87.054 41.4243 87.054ZM41.4243 86.46C41.7963 86.46 42.1203 86.361 42.3963 86.163C42.6723 85.959 42.8883 85.665 43.0443 85.281C43.2003 84.891 43.2783 84.414 43.2783 83.85C43.2783 83.286 43.2003 82.812 43.0443 82.428C42.8883 82.038 42.6723 81.744 42.3963 81.546C42.1203 81.342 41.7963 81.24 41.4243 81.24C41.0643 81.24 40.7433 81.342 40.4613 81.546C40.1793 81.744 39.9603 82.038 39.8043 82.428C39.6483 82.812 39.5703 83.286 39.5703 83.85C39.5703 84.414 39.6483 84.891 39.8043 85.281C39.9603 85.665 40.1793 85.959 40.4613 86.163C40.7433 86.361 41.0643 86.46 41.4243 86.46ZM45.4303 87V80.7H45.9793L48.8593 85.614H48.5713L51.4243 80.7H51.9733V87H51.3343V81.699H51.4873L48.8593 86.199H48.5443L45.8983 81.699H46.0693V87H45.4303Z" fill="#7F7F7F"/>
<path d="M34.1842 52V45.97L34.4722 46.276H32.6992V45.7H34.8322V52H34.1842ZM36.4101 49.84V49.282H38.7681V49.84H36.4101ZM41.7636 52.054C41.3136 52.054 40.8846 51.982 40.4766 51.838C40.0686 51.688 39.7446 51.49 39.5046 51.244L39.8196 50.731C40.0176 50.941 40.2876 51.115 40.6296 51.253C40.9776 51.391 41.3526 51.46 41.7546 51.46C42.2886 51.46 42.6936 51.343 42.9696 51.109C43.2516 50.869 43.3926 50.557 43.3926 50.173C43.3926 49.903 43.3266 49.672 43.1946 49.48C43.0686 49.282 42.8526 49.129 42.5466 49.021C42.2406 48.913 41.8206 48.859 41.2866 48.859H39.9456L40.2696 45.7H43.7166V46.276H40.5306L40.8636 45.961L40.5846 48.607L40.2516 48.283H41.4306C42.0666 48.283 42.5766 48.361 42.9606 48.517C43.3446 48.673 43.6206 48.892 43.7886 49.174C43.9626 49.45 44.0496 49.774 44.0496 50.146C44.0496 50.5 43.9656 50.824 43.7976 51.118C43.6296 51.406 43.3776 51.634 43.0416 51.802C42.7056 51.97 42.2796 52.054 41.7636 52.054ZM45.4303 52V45.7H45.9793L48.8593 50.614H48.5713L51.4243 45.7H51.9733V52H51.3343V46.699H51.4873L48.8593 51.199H48.5443L45.8983 46.699H46.0693V52H45.4303Z" fill="#7F7F7F"/>
<path d="M65.979 179.054C65.493 179.054 65.061 178.928 64.683 178.676C64.305 178.418 64.008 178.052 63.792 177.578C63.576 177.098 63.468 176.522 63.468 175.85C63.468 175.178 63.576 174.605 63.792 174.131C64.008 173.651 64.305 173.285 64.683 173.033C65.061 172.775 65.493 172.646 65.979 172.646C66.465 172.646 66.897 172.775 67.275 173.033C67.653 173.285 67.95 173.651 68.166 174.131C68.388 174.605 68.499 175.178 68.499 175.85C68.499 176.522 68.388 177.098 68.166 177.578C67.95 178.052 67.653 178.418 67.275 178.676C66.897 178.928 66.465 179.054 65.979 179.054ZM65.979 178.46C66.351 178.46 66.675 178.361 66.951 178.163C67.227 177.959 67.443 177.665 67.599 177.281C67.755 176.891 67.833 176.414 67.833 175.85C67.833 175.286 67.755 174.812 67.599 174.428C67.443 174.038 67.227 173.744 66.951 173.546C66.675 173.342 66.351 173.24 65.979 173.24C65.619 173.24 65.298 173.342 65.016 173.546C64.734 173.744 64.515 174.038 64.359 174.428C64.203 174.812 64.125 175.286 64.125 175.85C64.125 176.414 64.203 176.891 64.359 177.281C64.515 177.665 64.734 177.959 65.016 178.163C65.298 178.361 65.619 178.46 65.979 178.46Z" fill="#7F7F7F"/>
<path d="M89.3114 179L89.3114 178.541L91.9304 175.976C92.1704 175.742 92.3504 175.538 92.4704 175.364C92.5904 175.184 92.6714 175.016 92.7134 174.86C92.7554 174.704 92.7764 174.557 92.7764 174.419C92.7764 174.053 92.6504 173.765 92.3984 173.555C92.1524 173.345 91.7864 173.24 91.3004 173.24C90.9284 173.24 90.5984 173.297 90.3104 173.411C90.0284 173.525 89.7854 173.702 89.5814 173.942L89.1224 173.546C89.3684 173.258 89.6834 173.036 90.0674 172.88C90.4514 172.724 90.8804 172.646 91.3544 172.646C91.7804 172.646 92.1494 172.715 92.4614 172.853C92.7734 172.985 93.0134 173.18 93.1814 173.438C93.3554 173.696 93.4424 173.999 93.4424 174.347C93.4424 174.551 93.4124 174.752 93.3524 174.95C93.2984 175.148 93.1964 175.358 93.0464 175.58C92.9024 175.796 92.6894 176.042 92.4074 176.318L90.0044 178.676L89.8244 178.424H93.7304L93.7304 179H89.3114ZM97.0371 179.054C96.5511 179.054 96.1191 178.928 95.7411 178.676C95.3631 178.418 95.0661 178.052 94.8501 177.578C94.6341 177.098 94.5261 176.522 94.5261 175.85C94.5261 175.178 94.6341 174.605 94.8501 174.131C95.0661 173.651 95.3631 173.285 95.7411 173.033C96.1191 172.775 96.5511 172.646 97.0371 172.646C97.5231 172.646 97.9551 172.775 98.3331 173.033C98.7111 173.285 99.0081 173.651 99.2241 174.131C99.4461 174.605 99.5571 175.178 99.5571 175.85C99.5571 176.522 99.4461 177.098 99.2241 177.578C99.0081 178.052 98.7111 178.418 98.3331 178.676C97.9551 178.928 97.5231 179.054 97.0371 179.054ZM97.0371 178.46C97.4091 178.46 97.7331 178.361 98.0091 178.163C98.2851 177.959 98.5011 177.665 98.6571 177.281C98.8131 176.891 98.8911 176.414 98.8911 175.85C98.8911 175.286 98.8131 174.812 98.6571 174.428C98.5011 174.038 98.2851 173.744 98.0091 173.546C97.7331 173.342 97.4091 173.24 97.0371 173.24C96.6771 173.24 96.3561 173.342 96.0741 173.546C95.7921 173.744 95.5731 174.038 95.4171 174.428C95.2611 174.812 95.1831 175.286 95.1831 175.85C95.1831 176.414 95.2611 176.891 95.4171 177.281C95.5731 177.665 95.7921 177.959 96.0741 178.163C96.3561 178.361 96.6771 178.46 97.0371 178.46ZM102.996 179.054C102.51 179.054 102.078 178.928 101.7 178.676C101.322 178.418 101.025 178.052 100.809 177.578C100.593 177.098 100.485 176.522 100.485 175.85C100.485 175.178 100.593 174.605 100.809 174.131C101.025 173.651 101.322 173.285 101.7 173.033C102.078 172.775 102.51 172.646 102.996 172.646C103.482 172.646 103.914 172.775 104.292 173.033C104.67 173.285 104.967 173.651 105.183 174.131C105.405 174.605 105.516 175.178 105.516 175.85C105.516 176.522 105.405 177.098 105.183 177.578C104.967 178.052 104.67 178.418 104.292 178.676C103.914 178.928 103.482 179.054 102.996 179.054ZM102.996 178.46C103.368 178.46 103.692 178.361 103.968 178.163C104.244 177.959 104.46 177.665 104.616 177.281C104.772 176.891 104.85 176.414 104.85 175.85C104.85 175.286 104.772 174.812 104.616 174.428C104.46 174.038 104.244 173.744 103.968 173.546C103.692 173.342 103.368 173.24 102.996 173.24C102.636 173.24 102.315 173.342 102.033 173.546C101.751 173.744 101.532 174.038 101.376 174.428C101.22 174.812 101.142 175.286 101.142 175.85C101.142 176.414 101.22 176.891 101.376 177.281C101.532 177.665 101.751 177.959 102.033 178.163C102.315 178.361 102.636 178.46 102.996 178.46Z" fill="#7F7F7F"/>
<path d="M203.565 179.054C203.061 179.054 202.626 178.982 202.26 178.838C201.9 178.694 201.621 178.487 201.423 178.217C201.231 177.941 201.135 177.617 201.135 177.245C201.135 176.885 201.228 176.579 201.414 176.327C201.606 176.069 201.882 175.871 202.242 175.733C202.608 175.595 203.049 175.526 203.565 175.526C204.075 175.526 204.513 175.595 204.879 175.733C205.245 175.871 205.524 176.069 205.716 176.327C205.914 176.579 206.013 176.885 206.013 177.245C206.013 177.617 205.914 177.941 205.716 178.217C205.518 178.487 205.236 178.694 204.87 178.838C204.504 178.982 204.069 179.054 203.565 179.054ZM203.565 178.505C204.123 178.505 204.558 178.391 204.87 178.163C205.188 177.935 205.347 177.626 205.347 177.236C205.347 176.846 205.188 176.54 204.87 176.318C204.558 176.09 204.123 175.976 203.565 175.976C203.007 175.976 202.572 176.09 202.26 176.318C201.948 176.54 201.792 176.846 201.792 177.236C201.792 177.626 201.948 177.935 202.26 178.163C202.572 178.391 203.007 178.505 203.565 178.505ZM203.565 175.895C203.097 175.895 202.698 175.832 202.368 175.706C202.044 175.58 201.795 175.4 201.621 175.166C201.447 174.926 201.36 174.641 201.36 174.311C201.36 173.963 201.45 173.666 201.63 173.42C201.816 173.168 202.074 172.976 202.404 172.844C202.734 172.712 203.121 172.646 203.565 172.646C204.009 172.646 204.396 172.712 204.726 172.844C205.062 172.976 205.323 173.168 205.509 173.42C205.695 173.666 205.788 173.963 205.788 174.311C205.788 174.641 205.701 174.926 205.527 175.166C205.353 175.4 205.098 175.58 204.762 175.706C204.432 175.832 204.033 175.895 203.565 175.895ZM203.565 175.463C204.057 175.463 204.441 175.361 204.717 175.157C204.993 174.953 205.131 174.68 205.131 174.338C205.131 173.978 204.987 173.699 204.699 173.501C204.417 173.297 204.039 173.195 203.565 173.195C203.091 173.195 202.713 173.297 202.431 173.501C202.149 173.699 202.008 173.975 202.008 174.329C202.008 174.677 202.143 174.953 202.413 175.157C202.689 175.361 203.073 175.463 203.565 175.463ZM209.421 179.054C208.935 179.054 208.503 178.928 208.125 178.676C207.747 178.418 207.45 178.052 207.234 177.578C207.018 177.098 206.91 176.522 206.91 175.85C206.91 175.178 207.018 174.605 207.234 174.131C207.45 173.651 207.747 173.285 208.125 173.033C208.503 172.775 208.935 172.646 209.421 172.646C209.907 172.646 210.339 172.775 210.717 173.033C211.095 173.285 211.392 173.651 211.608 174.131C211.83 174.605 211.941 175.178 211.941 175.85C211.941 176.522 211.83 177.098 211.608 177.578C211.392 178.052 211.095 178.418 210.717 178.676C210.339 178.928 209.907 179.054 209.421 179.054ZM209.421 178.46C209.793 178.46 210.117 178.361 210.393 178.163C210.669 177.959 210.885 177.665 211.041 177.281C211.197 176.891 211.275 176.414 211.275 175.85C211.275 175.286 211.197 174.812 211.041 174.428C210.885 174.038 210.669 173.744 210.393 173.546C210.117 173.342 209.793 173.24 209.421 173.24C209.061 173.24 208.74 173.342 208.458 173.546C208.176 173.744 207.957 174.038 207.801 174.428C207.645 174.812 207.567 175.286 207.567 175.85C207.567 176.414 207.645 176.891 207.801 177.281C207.957 177.665 208.176 177.959 208.458 178.163C208.74 178.361 209.061 178.46 209.421 178.46ZM215.38 179.054C214.894 179.054 214.462 178.928 214.084 178.676C213.706 178.418 213.409 178.052 213.193 177.578C212.977 177.098 212.869 176.522 212.869 175.85C212.869 175.178 212.977 174.605 213.193 174.131C213.409 173.651 213.706 173.285 214.084 173.033C214.462 172.775 214.894 172.646 215.38 172.646C215.866 172.646 216.298 172.775 216.676 173.033C217.054 173.285 217.351 173.651 217.567 174.131C217.789 174.605 217.9 175.178 217.9 175.85C217.9 176.522 217.789 177.098 217.567 177.578C217.351 178.052 217.054 178.418 216.676 178.676C216.298 178.928 215.866 179.054 215.38 179.054ZM215.38 178.46C215.752 178.46 216.076 178.361 216.352 178.163C216.628 177.959 216.844 177.665 217 177.281C217.156 176.891 217.234 176.414 217.234 175.85C217.234 175.286 217.156 174.812 217 174.428C216.844 174.038 216.628 173.744 216.352 173.546C216.076 173.342 215.752 173.24 215.38 173.24C215.02 173.24 214.699 173.342 214.417 173.546C214.135 173.744 213.916 174.038 213.76 174.428C213.604 174.812 213.526 175.286 213.526 175.85C213.526 176.414 213.604 176.891 213.76 177.281C213.916 177.665 214.135 177.959 214.417 178.163C214.699 178.361 215.02 178.46 215.38 178.46Z" fill="#7F7F7F"/>
<path d="M239.517 179L239.517 172.97L239.805 173.276H238.032L238.032 172.7H240.165L240.165 179H239.517ZM242.804 177.434L242.777 176.624L246.593 172.7H247.358L244.577 175.616L244.199 176.021L242.804 177.434ZM242.228 179L242.228 172.7H242.894L242.894 179H242.228ZM246.755 179L244.037 175.868L244.487 175.382L247.547 179H246.755Z" fill="#7F7F7F"/>
<path d="M269.992 179L269.992 172.97L270.28 173.276H268.507L268.507 172.7H270.64L270.64 179H269.992ZM272.632 179.045C272.5 179.045 272.386 178.997 272.29 178.901C272.2 178.805 272.155 178.688 272.155 178.55C272.155 178.406 272.2 178.289 272.29 178.199C272.386 178.109 272.5 178.064 272.632 178.064C272.764 178.064 272.875 178.109 272.965 178.199C273.061 178.289 273.109 178.406 273.109 178.55C273.109 178.688 273.061 178.805 272.965 178.901C272.875 178.997 272.764 179.045 272.632 179.045ZM274.024 179L274.024 178.541L276.643 175.976C276.883 175.742 277.063 175.538 277.183 175.364C277.303 175.184 277.384 175.016 277.426 174.86C277.468 174.704 277.489 174.557 277.489 174.419C277.489 174.053 277.363 173.765 277.111 173.555C276.865 173.345 276.499 173.24 276.013 173.24C275.641 173.24 275.311 173.297 275.023 173.411C274.741 173.525 274.498 173.702 274.294 173.942L273.835 173.546C274.081 173.258 274.396 173.036 274.78 172.88C275.164 172.724 275.593 172.646 276.067 172.646C276.493 172.646 276.862 172.715 277.174 172.853C277.486 172.985 277.726 173.18 277.894 173.438C278.068 173.696 278.155 173.999 278.155 174.347C278.155 174.551 278.125 174.752 278.065 174.95C278.011 175.148 277.909 175.358 277.759 175.58C277.615 175.796 277.402 176.042 277.12 176.318L274.717 178.676L274.537 178.424H278.443L278.443 179H274.024ZM280.39 177.434L280.363 176.624L284.179 172.7H284.944L282.163 175.616L281.785 176.021L280.39 177.434ZM279.814 179L279.814 172.7H280.48L280.48 179H279.814ZM284.341 179L281.623 175.868L282.073 175.382L285.133 179H284.341Z" fill="#7F7F7F"/>
<path d="M126.568 177.344L126.568 176.876L129.907 172.7H130.627L127.315 176.876L126.964 176.768H132.031L132.031 177.344H126.568ZM130.123 179L130.123 177.344L130.141 176.768L130.141 175.31H130.771L130.771 179H130.123ZM135.137 179.054C134.651 179.054 134.219 178.928 133.841 178.676C133.463 178.418 133.166 178.052 132.95 177.578C132.734 177.098 132.626 176.522 132.626 175.85C132.626 175.178 132.734 174.605 132.95 174.131C133.166 173.651 133.463 173.285 133.841 173.033C134.219 172.775 134.651 172.646 135.137 172.646C135.623 172.646 136.055 172.775 136.433 173.033C136.811 173.285 137.108 173.651 137.324 174.131C137.546 174.605 137.657 175.178 137.657 175.85C137.657 176.522 137.546 177.098 137.324 177.578C137.108 178.052 136.811 178.418 136.433 178.676C136.055 178.928 135.623 179.054 135.137 179.054ZM135.137 178.46C135.509 178.46 135.833 178.361 136.109 178.163C136.385 177.959 136.601 177.665 136.757 177.281C136.913 176.891 136.991 176.414 136.991 175.85C136.991 175.286 136.913 174.812 136.757 174.428C136.601 174.038 136.385 173.744 136.109 173.546C135.833 173.342 135.509 173.24 135.137 173.24C134.777 173.24 134.456 173.342 134.174 173.546C133.892 173.744 133.673 174.038 133.517 174.428C133.361 174.812 133.283 175.286 133.283 175.85C133.283 176.414 133.361 176.891 133.517 177.281C133.673 177.665 133.892 177.959 134.174 178.163C134.456 178.361 134.777 178.46 135.137 178.46ZM141.096 179.054C140.61 179.054 140.178 178.928 139.8 178.676C139.422 178.418 139.125 178.052 138.909 177.578C138.693 177.098 138.585 176.522 138.585 175.85C138.585 175.178 138.693 174.605 138.909 174.131C139.125 173.651 139.422 173.285 139.8 173.033C140.178 172.775 140.61 172.646 141.096 172.646C141.582 172.646 142.014 172.775 142.392 173.033C142.77 173.285 143.067 173.651 143.283 174.131C143.505 174.605 143.616 175.178 143.616 175.85C143.616 176.522 143.505 177.098 143.283 177.578C143.067 178.052 142.77 178.418 142.392 178.676C142.014 178.928 141.582 179.054 141.096 179.054ZM141.096 178.46C141.468 178.46 141.792 178.361 142.068 178.163C142.344 177.959 142.56 177.665 142.716 177.281C142.872 176.891 142.95 176.414 142.95 175.85C142.95 175.286 142.872 174.812 142.716 174.428C142.56 174.038 142.344 173.744 142.068 173.546C141.792 173.342 141.468 173.24 141.096 173.24C140.736 173.24 140.415 173.342 140.133 173.546C139.851 173.744 139.632 174.038 139.476 174.428C139.32 174.812 139.242 175.286 139.242 175.85C139.242 176.414 139.32 176.891 139.476 177.281C139.632 177.665 139.851 177.959 140.133 178.163C140.415 178.361 140.736 178.46 141.096 178.46Z" fill="#7F7F7F"/>
<path d="M166.506 179.054C165.948 179.054 165.477 178.931 165.093 178.685C164.709 178.433 164.418 178.073 164.22 177.605C164.022 177.131 163.923 176.564 163.923 175.904C163.923 175.19 164.043 174.593 164.283 174.113C164.529 173.627 164.868 173.261 165.3 173.015C165.732 172.769 166.233 172.646 166.803 172.646C167.085 172.646 167.355 172.673 167.613 172.727C167.871 172.781 168.099 172.868 168.297 172.988L168.036 173.51C167.874 173.402 167.688 173.327 167.478 173.285C167.268 173.237 167.046 173.213 166.812 173.213C166.134 173.213 165.591 173.429 165.183 173.861C164.781 174.293 164.58 174.938 164.58 175.796C164.58 175.928 164.586 176.093 164.598 176.291C164.616 176.483 164.652 176.675 164.706 176.867L164.481 176.696C164.547 176.384 164.676 176.12 164.868 175.904C165.06 175.682 165.3 175.514 165.588 175.4C165.876 175.286 166.191 175.229 166.533 175.229C166.953 175.229 167.322 175.307 167.64 175.463C167.958 175.619 168.207 175.838 168.387 176.12C168.567 176.402 168.657 176.735 168.657 177.119C168.657 177.509 168.564 177.851 168.378 178.145C168.192 178.433 167.934 178.658 167.604 178.82C167.28 178.976 166.914 179.054 166.506 179.054ZM166.479 178.505C166.779 178.505 167.043 178.451 167.271 178.343C167.505 178.229 167.688 178.07 167.82 177.866C167.952 177.656 168.018 177.413 168.018 177.137C168.018 176.723 167.874 176.393 167.586 176.147C167.304 175.901 166.92 175.778 166.434 175.778C166.11 175.778 165.828 175.838 165.588 175.958C165.348 176.078 165.159 176.243 165.021 176.453C164.883 176.657 164.814 176.891 164.814 177.155C164.814 177.383 164.877 177.602 165.003 177.812C165.129 178.016 165.315 178.184 165.561 178.316C165.813 178.442 166.119 178.505 166.479 178.505ZM171.919 179.054C171.433 179.054 171.001 178.928 170.623 178.676C170.245 178.418 169.948 178.052 169.732 177.578C169.516 177.098 169.408 176.522 169.408 175.85C169.408 175.178 169.516 174.605 169.732 174.131C169.948 173.651 170.245 173.285 170.623 173.033C171.001 172.775 171.433 172.646 171.919 172.646C172.405 172.646 172.837 172.775 173.215 173.033C173.593 173.285 173.89 173.651 174.106 174.131C174.328 174.605 174.439 175.178 174.439 175.85C174.439 176.522 174.328 177.098 174.106 177.578C173.89 178.052 173.593 178.418 173.215 178.676C172.837 178.928 172.405 179.054 171.919 179.054ZM171.919 178.46C172.291 178.46 172.615 178.361 172.891 178.163C173.167 177.959 173.383 177.665 173.539 177.281C173.695 176.891 173.773 176.414 173.773 175.85C173.773 175.286 173.695 174.812 173.539 174.428C173.383 174.038 173.167 173.744 172.891 173.546C172.615 173.342 172.291 173.24 171.919 173.24C171.559 173.24 171.238 173.342 170.956 173.546C170.674 173.744 170.455 174.038 170.299 174.428C170.143 174.812 170.065 175.286 170.065 175.85C170.065 176.414 170.143 176.891 170.299 177.281C170.455 177.665 170.674 177.959 170.956 178.163C171.238 178.361 171.559 178.46 171.919 178.46ZM177.878 179.054C177.392 179.054 176.96 178.928 176.582 178.676C176.204 178.418 175.907 178.052 175.691 177.578C175.475 177.098 175.367 176.522 175.367 175.85C175.367 175.178 175.475 174.605 175.691 174.131C175.907 173.651 176.204 173.285 176.582 173.033C176.96 172.775 177.392 172.646 177.878 172.646C178.364 172.646 178.796 172.775 179.174 173.033C179.552 173.285 179.849 173.651 180.065 174.131C180.287 174.605 180.398 175.178 180.398 175.85C180.398 176.522 180.287 177.098 180.065 177.578C179.849 178.052 179.552 178.418 179.174 178.676C178.796 178.928 178.364 179.054 177.878 179.054ZM177.878 178.46C178.25 178.46 178.574 178.361 178.85 178.163C179.126 177.959 179.342 177.665 179.498 177.281C179.654 176.891 179.732 176.414 179.732 175.85C179.732 175.286 179.654 174.812 179.498 174.428C179.342 174.038 179.126 173.744 178.85 173.546C178.574 173.342 178.25 173.24 177.878 173.24C177.518 173.24 177.197 173.342 176.915 173.546C176.633 173.744 176.414 174.038 176.258 174.428C176.102 174.812 176.024 175.286 176.024 175.85C176.024 176.414 176.102 176.891 176.258 177.281C176.414 177.665 176.633 177.959 176.915 178.163C177.197 178.361 177.518 178.46 177.878 178.46Z" fill="#7F7F7F"/>
<path d="M12.1 122.82C12.1 123.353 12.0133 123.85 11.84 124.31C11.66 124.763 11.41 125.16 11.09 125.5C10.7633 125.833 10.38 126.093 9.94 126.28C9.5 126.467 9.02 126.56 8.5 126.56C7.98 126.56 7.5 126.467 7.06 126.28C6.62 126.093 6.24 125.83 5.92 125.49C5.59333 125.15 5.34333 124.753 5.17 124.3C4.99 123.847 4.9 123.35 4.9 122.81C4.9 122.237 5 121.713 5.2 121.24C5.39333 120.767 5.68333 120.367 6.07 120.04L6.86 120.88C6.58667 121.133 6.38333 121.417 6.25 121.73C6.11 122.043 6.04 122.383 6.04 122.75C6.04 123.117 6.1 123.453 6.22 123.76C6.34 124.06 6.51 124.323 6.73 124.55C6.95 124.77 7.21 124.943 7.51 125.07C7.81 125.19 8.14 125.25 8.5 125.25C8.86 125.25 9.19 125.19 9.49 125.07C9.79 124.943 10.05 124.77 10.27 124.55C10.49 124.323 10.66 124.06 10.78 123.76C10.9 123.453 10.96 123.117 10.96 122.75C10.96 122.383 10.8933 122.043 10.76 121.73C10.62 121.417 10.41 121.133 10.13 120.88L10.93 120.04C11.31 120.367 11.6 120.767 11.8 121.24C12 121.713 12.1 122.24 12.1 122.82ZM12 115.673H10.92L10.69 115.743H8.8C8.43333 115.743 8.15 115.853 7.95 116.073C7.74333 116.293 7.64 116.627 7.64 117.073C7.64 117.373 7.68667 117.67 7.78 117.963C7.87333 118.25 8.00333 118.493 8.17 118.693L7.26 119.183C7.04 118.897 6.87667 118.557 6.77 118.163C6.65667 117.763 6.6 117.35 6.6 116.923C6.6 116.15 6.78667 115.553 7.16 115.133C7.52667 114.707 8.09667 114.493 8.87 114.493H12V115.673ZM12.07 117.353C12.07 117.753 12.0033 118.103 11.87 118.403C11.73 118.703 11.54 118.937 11.3 119.103C11.0533 119.263 10.7767 119.343 10.47 119.343C10.17 119.343 9.9 119.273 9.66 119.133C9.42 118.987 9.23 118.75 9.09 118.423C8.95 118.097 8.88 117.663 8.88 117.123V115.573H9.71V117.033C9.71 117.46 9.78 117.747 9.92 117.893C10.0533 118.04 10.22 118.113 10.42 118.113C10.6467 118.113 10.8267 118.023 10.96 117.843C11.0933 117.663 11.16 117.413 11.16 117.093C11.16 116.787 11.09 116.513 10.95 116.273C10.81 116.027 10.6033 115.85 10.33 115.743L11.08 115.533C11.3933 115.653 11.6367 115.87 11.81 116.183C11.9833 116.49 12.07 116.88 12.07 117.353ZM12.07 111.239C12.07 111.686 12.0133 112.116 11.9 112.529C11.78 112.936 11.6367 113.259 11.47 113.499L10.52 113.019C10.6733 112.779 10.8 112.492 10.9 112.159C11 111.826 11.05 111.492 11.05 111.159C11.05 110.766 10.9967 110.482 10.89 110.309C10.7833 110.129 10.64 110.039 10.46 110.039C10.3133 110.039 10.2033 110.099 10.13 110.219C10.05 110.339 9.99 110.496 9.95 110.689C9.91 110.882 9.87333 111.099 9.84 111.339C9.80667 111.572 9.76333 111.809 9.71 112.049C9.65 112.282 9.56667 112.496 9.46 112.689C9.34667 112.882 9.19667 113.039 9.01 113.159C8.82333 113.279 8.57667 113.339 8.27 113.339C7.93 113.339 7.63667 113.242 7.39 113.049C7.13667 112.856 6.94333 112.586 6.81 112.239C6.67 111.886 6.6 111.469 6.6 110.989C6.6 110.629 6.64 110.266 6.72 109.899C6.8 109.532 6.91333 109.229 7.06 108.989L8.01 109.469C7.85667 109.722 7.75333 109.979 7.7 110.239C7.64 110.492 7.61 110.746 7.61 110.999C7.61 111.379 7.66667 111.662 7.78 111.849C7.89333 112.029 8.03667 112.119 8.21 112.119C8.37 112.119 8.49 112.059 8.57 111.939C8.65 111.819 8.71333 111.662 8.76 111.469C8.80667 111.276 8.84667 111.062 8.88 110.829C8.90667 110.589 8.95 110.352 9.01 110.119C9.07 109.886 9.15333 109.672 9.26 109.479C9.36 109.279 9.50333 109.119 9.69 108.999C9.87667 108.879 10.12 108.819 10.42 108.819C10.7533 108.819 11.0433 108.919 11.29 109.119C11.5367 109.312 11.73 109.589 11.87 109.949C12.0033 110.309 12.07 110.739 12.07 111.239ZM6.6 104.712C6.6 104.286 6.68333 103.906 6.85 103.572C7.01667 103.232 7.27333 102.966 7.62 102.772C7.96 102.579 8.4 102.482 8.94 102.482H12V103.732H9.1C8.62667 103.732 8.27333 103.846 8.04 104.072C7.80667 104.292 7.69 104.602 7.69 105.002C7.69 105.296 7.75 105.556 7.87 105.782C7.99 106.009 8.17 106.186 8.41 106.312C8.64333 106.432 8.94 106.492 9.3 106.492H12V107.742H4.58V106.492H8.1L7.66 106.762C7.32 106.576 7.06 106.306 6.88 105.952C6.69333 105.592 6.6 105.179 6.6 104.712ZM12.07 97.9368C12.07 98.3901 11.97 98.7935 11.77 99.1468C11.57 99.5001 11.27 99.7801 10.87 99.9868C10.4633 100.187 9.95 100.287 9.33 100.287C8.70333 100.287 8.19 100.183 7.79 99.9768C7.39 99.7635 7.09333 99.4801 6.9 99.1268C6.7 98.7668 6.6 98.3701 6.6 97.9368C6.6 97.4101 6.71333 96.9468 6.94 96.5468C7.16667 96.1401 7.48333 95.8201 7.89 95.5868C8.29667 95.3468 8.77667 95.2268 9.33 95.2268C9.88333 95.2268 10.3633 95.3468 10.77 95.5868C11.1767 95.8201 11.4967 96.1401 11.73 96.5468C11.9567 96.9468 12.07 97.4101 12.07 97.9368ZM12 100.897H4.58V99.6468H7.9L9.32 99.7468L10.74 99.7068H12V100.897ZM11 98.0768C11 97.7768 10.9333 97.5101 10.8 97.2768C10.6667 97.0368 10.4733 96.8468 10.22 96.7068C9.96667 96.5668 9.67 96.4968 9.33 96.4968C8.98333 96.4968 8.68667 96.5668 8.44 96.7068C8.18667 96.8468 7.99333 97.0368 7.86 97.2768C7.72667 97.5101 7.66 97.7768 7.66 98.0768C7.66 98.3768 7.72667 98.6468 7.86 98.8868C7.99333 99.1268 8.18667 99.3168 8.44 99.4568C8.68667 99.5968 8.98333 99.6668 9.33 99.6668C9.67 99.6668 9.96667 99.5968 10.22 99.4568C10.4733 99.3168 10.6667 99.1268 10.8 98.8868C10.9333 98.6468 11 98.3768 11 98.0768ZM12 90.8197H10.92L10.69 90.8897H8.8C8.43333 90.8897 8.15 90.9997 7.95 91.2197C7.74333 91.4397 7.64 91.773 7.64 92.2197C7.64 92.5197 7.68667 92.8164 7.78 93.1097C7.87333 93.3964 8.00333 93.6397 8.17 93.8397L7.26 94.3297C7.04 94.043 6.87667 93.703 6.77 93.3097C6.65667 92.9097 6.6 92.4964 6.6 92.0697C6.6 91.2964 6.78667 90.6997 7.16 90.2797C7.52667 89.853 8.09667 89.6397 8.87 89.6397H12V90.8197ZM12.07 92.4997C12.07 92.8997 12.0033 93.2497 11.87 93.5497C11.73 93.8497 11.54 94.083 11.3 94.2497C11.0533 94.4097 10.7767 94.4897 10.47 94.4897C10.17 94.4897 9.9 94.4197 9.66 94.2797C9.42 94.133 9.23 93.8964 9.09 93.5697C8.95 93.243 8.88 92.8097 8.88 92.2697V90.7197H9.71V92.1797C9.71 92.6064 9.78 92.893 9.92 93.0397C10.0533 93.1864 10.22 93.2597 10.42 93.2597C10.6467 93.2597 10.8267 93.1697 10.96 92.9897C11.0933 92.8097 11.16 92.5597 11.16 92.2397C11.16 91.933 11.09 91.6597 10.95 91.4197C10.81 91.173 10.6033 90.9964 10.33 90.8897L11.08 90.6797C11.3933 90.7997 11.6367 91.0164 11.81 91.3297C11.9833 91.6364 12.07 92.0264 12.07 92.4997ZM12 88.0355H4.58V86.7855H12V88.0355ZM12 81.8548H10.92L10.69 81.9248H8.8C8.43333 81.9248 8.15 82.0348 7.95 82.2548C7.74333 82.4748 7.64 82.8082 7.64 83.2548C7.64 83.5548 7.68667 83.8515 7.78 84.1448C7.87333 84.4315 8.00333 84.6748 8.17 84.8748L7.26 85.3648C7.04 85.0782 6.87667 84.7382 6.77 84.3448C6.65667 83.9448 6.6 83.5315 6.6 83.1048C6.6 82.3315 6.78667 81.7348 7.16 81.3148C7.52667 80.8882 8.09667 80.6748 8.87 80.6748H12L12 81.8548ZM12.07 83.5348C12.07 83.9348 12.0033 84.2848 11.87 84.5848C11.73 84.8848 11.54 85.1182 11.3 85.2848C11.0533 85.4448 10.7767 85.5248 10.47 85.5248C10.17 85.5248 9.9 85.4548 9.66 85.3148C9.42 85.1682 9.23 84.9315 9.09 84.6048C8.95 84.2782 8.88 83.8448 8.88 83.3048V81.7548H9.71V83.2148C9.71 83.6415 9.78 83.9282 9.92 84.0748C10.0533 84.2215 10.22 84.2948 10.42 84.2948C10.6467 84.2948 10.8267 84.2048 10.96 84.0248C11.0933 83.8448 11.16 83.5948 11.16 83.2748C11.16 82.9682 11.09 82.6948 10.95 82.4548C10.81 82.2082 10.6033 82.0315 10.33 81.9248L11.08 81.7148C11.3933 81.8348 11.6367 82.0515 11.81 82.3648C11.9833 82.6715 12.07 83.0615 12.07 83.5348ZM6.6 76.0406C6.6 75.614 6.68333 75.234 6.85 74.9006C7.01667 74.5606 7.27333 74.294 7.62 74.1006C7.96 73.9073 8.4 73.8106 8.94 73.8106H12V75.0606H9.1C8.62667 75.0606 8.27333 75.174 8.04 75.4006C7.80667 75.6206 7.69 75.9306 7.69 76.3306C7.69 76.624 7.75 76.884 7.87 77.1106C7.99 77.3373 8.17 77.514 8.41 77.6406C8.64333 77.7606 8.94 77.8206 9.3 77.8206H12V79.0706H6.66V77.8806H8.1L7.66 78.0906C7.32 77.904 7.06 77.634 6.88 77.2806C6.69333 76.9206 6.6 76.5073 6.6 76.0406ZM12.07 69.7652C12.07 70.3252 11.9533 70.8252 11.72 71.2652C11.48 71.6985 11.1533 72.0385 10.74 72.2852C10.3267 72.5318 9.85667 72.6552 9.33 72.6552C8.79667 72.6552 8.32667 72.5318 7.92 72.2852C7.50667 72.0385 7.18333 71.6985 6.95 71.2652C6.71667 70.8252 6.6 70.3252 6.6 69.7652C6.6 69.2452 6.70667 68.7885 6.92 68.3952C7.12667 67.9952 7.43333 67.6918 7.84 67.4852L8.4 68.4452C8.14667 68.6052 7.96 68.8018 7.84 69.0352C7.72 69.2618 7.66 69.5085 7.66 69.7752C7.66 70.0818 7.72667 70.3585 7.86 70.6052C7.99333 70.8518 8.18667 71.0452 8.44 71.1852C8.68667 71.3252 8.98333 71.3952 9.33 71.3952C9.67667 71.3952 9.97667 71.3252 10.23 71.1852C10.4767 71.0452 10.6667 70.8518 10.8 70.6052C10.9333 70.3585 11 70.0818 11 69.7752C11 69.5085 10.94 69.2618 10.82 69.0352C10.7 68.8018 10.5133 68.6052 10.26 68.4452L10.82 67.4852C11.22 67.6918 11.53 67.9952 11.75 68.3952C11.9633 68.7885 12.07 69.2452 12.07 69.7652ZM12.07 63.9727C12.07 64.5661 11.9533 65.0861 11.72 65.5327C11.48 65.9727 11.1533 66.3161 10.74 66.5627C10.3267 66.8027 9.85667 66.9227 9.33 66.9227C8.79667 66.9227 8.32667 66.8061 7.92 66.5727C7.50667 66.3327 7.18333 66.0061 6.95 65.5927C6.71667 65.1727 6.6 64.6961 6.6 64.1627C6.6 63.6427 6.71333 63.1794 6.94 62.7727C7.16667 62.3661 7.48667 62.0461 7.9 61.8127C8.31333 61.5794 8.8 61.4627 9.36 61.4627C9.41333 61.4627 9.47333 61.4661 9.54 61.4727C9.60667 61.4727 9.67 61.4761 9.73 61.4827V65.9327H8.9V62.1427L9.16 62.6327C8.85333 62.6261 8.58333 62.6894 8.35 62.8227C8.11667 62.9561 7.93333 63.1394 7.8 63.3727C7.66667 63.5994 7.6 63.8627 7.6 64.1627C7.6 64.4694 7.66667 64.7394 7.8 64.9727C7.93333 65.1994 8.12 65.3794 8.36 65.5127C8.59333 65.6394 8.87 65.7027 9.19 65.7027H9.39C9.71 65.7027 9.99333 65.6294 10.24 65.4827C10.4867 65.3361 10.6767 65.1294 10.81 64.8627C10.9433 64.5961 11.01 64.2894 11.01 63.9427C11.01 63.6427 10.9633 63.3727 10.87 63.1327C10.7767 62.8927 10.63 62.6794 10.43 62.4927L11.2 61.8227C11.48 62.0627 11.6967 62.3661 11.85 62.7327C11.9967 63.0927 12.07 63.5061 12.07 63.9727Z" fill="#4F4F4F"/>
<path d="M116.94 202V195H118.01L122.4 200.39H121.87V195H123.16V202H122.09L117.7 196.61H118.23V202H116.94ZM127.316 202.07C126.769 202.07 126.282 201.953 125.856 201.72C125.429 201.48 125.092 201.153 124.846 200.74C124.599 200.327 124.476 199.857 124.476 199.33C124.476 198.797 124.599 198.327 124.846 197.92C125.092 197.507 125.429 197.183 125.856 196.95C126.282 196.717 126.769 196.6 127.316 196.6C127.869 196.6 128.359 196.717 128.786 196.95C129.219 197.183 129.556 197.503 129.796 197.91C130.042 198.317 130.166 198.79 130.166 199.33C130.166 199.857 130.042 200.327 129.796 200.74C129.556 201.153 129.219 201.48 128.786 201.72C128.359 201.953 127.869 202.07 127.316 202.07ZM127.316 201C127.622 201 127.896 200.933 128.136 200.8C128.376 200.667 128.562 200.473 128.696 200.22C128.836 199.967 128.906 199.67 128.906 199.33C128.906 198.983 128.836 198.687 128.696 198.44C128.562 198.187 128.376 197.993 128.136 197.86C127.896 197.727 127.626 197.66 127.326 197.66C127.019 197.66 126.746 197.727 126.506 197.86C126.272 197.993 126.086 198.187 125.946 198.44C125.806 198.687 125.736 198.983 125.736 199.33C125.736 199.67 125.806 199.967 125.946 200.22C126.086 200.473 126.272 200.667 126.506 200.8C126.746 200.933 127.016 201 127.316 201ZM131.673 202.07C131.446 202.07 131.253 201.993 131.093 201.84C130.933 201.68 130.853 201.48 130.853 201.24C130.853 200.987 130.933 200.787 131.093 200.64C131.253 200.487 131.446 200.41 131.673 200.41C131.9 200.41 132.093 200.487 132.253 200.64C132.413 200.787 132.493 200.987 132.493 201.24C132.493 201.48 132.413 201.68 132.253 201.84C132.093 201.993 131.9 202.07 131.673 202.07ZM138.878 202.07C138.332 202.07 137.845 201.953 137.418 201.72C136.992 201.48 136.655 201.153 136.408 200.74C136.162 200.327 136.038 199.857 136.038 199.33C136.038 198.797 136.162 198.327 136.408 197.92C136.655 197.507 136.992 197.183 137.418 196.95C137.845 196.717 138.332 196.6 138.878 196.6C139.432 196.6 139.922 196.717 140.348 196.95C140.782 197.183 141.118 197.503 141.358 197.91C141.605 198.317 141.728 198.79 141.728 199.33C141.728 199.857 141.605 200.327 141.358 200.74C141.118 201.153 140.782 201.48 140.348 201.72C139.922 201.953 139.432 202.07 138.878 202.07ZM138.878 201C139.185 201 139.458 200.933 139.698 200.8C139.938 200.667 140.125 200.473 140.258 200.22C140.398 199.967 140.468 199.67 140.468 199.33C140.468 198.983 140.398 198.687 140.258 198.44C140.125 198.187 139.938 197.993 139.698 197.86C139.458 197.727 139.188 197.66 138.888 197.66C138.582 197.66 138.308 197.727 138.068 197.86C137.835 197.993 137.648 198.187 137.508 198.44C137.368 198.687 137.298 198.983 137.298 199.33C137.298 199.67 137.368 199.967 137.508 200.22C137.648 200.473 137.835 200.667 138.068 200.8C138.308 200.933 138.578 201 138.878 201ZM143.094 202V196.36C143.094 195.8 143.257 195.353 143.584 195.02C143.917 194.68 144.39 194.51 145.004 194.51C145.224 194.51 145.43 194.533 145.624 194.58C145.824 194.627 145.99 194.7 146.124 194.8L145.784 195.74C145.69 195.667 145.584 195.613 145.464 195.58C145.344 195.54 145.22 195.52 145.094 195.52C144.834 195.52 144.637 195.593 144.504 195.74C144.37 195.88 144.304 196.093 144.304 196.38V196.98L144.344 197.54V202H143.094ZM142.214 197.7V196.7H145.774V197.7H142.214ZM149.499 202V195H152.379C152.999 195 153.529 195.1 153.969 195.3C154.415 195.5 154.759 195.787 154.999 196.16C155.239 196.533 155.359 196.977 155.359 197.49C155.359 198.003 155.239 198.447 154.999 198.82C154.759 199.187 154.415 199.47 153.969 199.67C153.529 199.863 152.999 199.96 152.379 199.96H150.219L150.799 199.37V202H149.499ZM154.079 202L152.309 199.46H153.699L155.479 202H154.079ZM150.799 199.51L150.219 198.89H152.319C152.892 198.89 153.322 198.767 153.609 198.52C153.902 198.273 154.049 197.93 154.049 197.49C154.049 197.043 153.902 196.7 153.609 196.46C153.322 196.22 152.892 196.1 152.319 196.1H150.219L150.799 195.46V199.51ZM159.203 202.07C158.61 202.07 158.09 201.953 157.643 201.72C157.203 201.48 156.86 201.153 156.613 200.74C156.373 200.327 156.253 199.857 156.253 199.33C156.253 198.797 156.37 198.327 156.603 197.92C156.843 197.507 157.17 197.183 157.583 196.95C158.003 196.717 158.48 196.6 159.013 196.6C159.533 196.6 159.996 196.713 160.403 196.94C160.81 197.167 161.13 197.487 161.363 197.9C161.596 198.313 161.713 198.8 161.713 199.36C161.713 199.413 161.71 199.473 161.703 199.54C161.703 199.607 161.7 199.67 161.693 199.73H157.243V198.9H161.033L160.543 199.16C160.55 198.853 160.486 198.583 160.353 198.35C160.22 198.117 160.036 197.933 159.803 197.8C159.576 197.667 159.313 197.6 159.013 197.6C158.706 197.6 158.436 197.667 158.203 197.8C157.976 197.933 157.796 198.12 157.663 198.36C157.536 198.593 157.473 198.87 157.473 199.19V199.39C157.473 199.71 157.546 199.993 157.693 200.24C157.84 200.487 158.046 200.677 158.313 200.81C158.58 200.943 158.886 201.01 159.233 201.01C159.533 201.01 159.803 200.963 160.043 200.87C160.283 200.777 160.496 200.63 160.683 200.43L161.353 201.2C161.113 201.48 160.81 201.697 160.443 201.85C160.083 201.997 159.67 202.07 159.203 202.07ZM165.364 202.07C164.804 202.07 164.304 201.953 163.864 201.72C163.43 201.48 163.09 201.153 162.844 200.74C162.597 200.327 162.474 199.857 162.474 199.33C162.474 198.797 162.597 198.327 162.844 197.92C163.09 197.507 163.43 197.183 163.864 196.95C164.304 196.717 164.804 196.6 165.364 196.6C165.884 196.6 166.34 196.707 166.734 196.92C167.134 197.127 167.437 197.433 167.644 197.84L166.684 198.4C166.524 198.147 166.327 197.96 166.094 197.84C165.867 197.72 165.62 197.66 165.354 197.66C165.047 197.66 164.77 197.727 164.524 197.86C164.277 197.993 164.084 198.187 163.944 198.44C163.804 198.687 163.734 198.983 163.734 199.33C163.734 199.677 163.804 199.977 163.944 200.23C164.084 200.477 164.277 200.667 164.524 200.8C164.77 200.933 165.047 201 165.354 201C165.62 201 165.867 200.94 166.094 200.82C166.327 200.7 166.524 200.513 166.684 200.26L167.644 200.82C167.437 201.22 167.134 201.53 166.734 201.75C166.34 201.963 165.884 202.07 165.364 202.07ZM171.046 202.07C170.5 202.07 170.013 201.953 169.586 201.72C169.16 201.48 168.823 201.153 168.576 200.74C168.33 200.327 168.206 199.857 168.206 199.33C168.206 198.797 168.33 198.327 168.576 197.92C168.823 197.507 169.16 197.183 169.586 196.95C170.013 196.717 170.5 196.6 171.046 196.6C171.6 196.6 172.09 196.717 172.516 196.95C172.95 197.183 173.286 197.503 173.526 197.91C173.773 198.317 173.896 198.79 173.896 199.33C173.896 199.857 173.773 200.327 173.526 200.74C173.286 201.153 172.95 201.48 172.516 201.72C172.09 201.953 171.6 202.07 171.046 202.07ZM171.046 201C171.353 201 171.626 200.933 171.866 200.8C172.106 200.667 172.293 200.473 172.426 200.22C172.566 199.967 172.636 199.67 172.636 199.33C172.636 198.983 172.566 198.687 172.426 198.44C172.293 198.187 172.106 197.993 171.866 197.86C171.626 197.727 171.356 197.66 171.056 197.66C170.75 197.66 170.476 197.727 170.236 197.86C170.003 197.993 169.816 198.187 169.676 198.44C169.536 198.687 169.466 198.983 169.466 199.33C169.466 199.67 169.536 199.967 169.676 200.22C169.816 200.473 170.003 200.667 170.236 200.8C170.476 200.933 170.746 201 171.046 201ZM175.091 202V196.66H176.281V198.13L176.141 197.7C176.301 197.34 176.551 197.067 176.891 196.88C177.238 196.693 177.668 196.6 178.181 196.6V197.79C178.128 197.777 178.078 197.77 178.031 197.77C177.985 197.763 177.938 197.76 177.891 197.76C177.418 197.76 177.041 197.9 176.761 198.18C176.481 198.453 176.341 198.863 176.341 199.41V202H175.091ZM181.453 202.07C180.94 202.07 180.476 201.957 180.063 201.73C179.656 201.497 179.336 201.177 179.103 200.77C178.87 200.363 178.753 199.883 178.753 199.33C178.753 198.777 178.87 198.297 179.103 197.89C179.336 197.483 179.656 197.167 180.063 196.94C180.476 196.713 180.94 196.6 181.453 196.6C181.9 196.6 182.3 196.7 182.653 196.9C183.006 197.093 183.286 197.39 183.493 197.79C183.7 198.19 183.803 198.703 183.803 199.33C183.803 199.95 183.703 200.463 183.503 200.87C183.303 201.27 183.026 201.57 182.673 201.77C182.32 201.97 181.913 202.07 181.453 202.07ZM181.603 201C181.903 201 182.17 200.933 182.403 200.8C182.643 200.667 182.833 200.473 182.973 200.22C183.12 199.967 183.193 199.67 183.193 199.33C183.193 198.983 183.12 198.687 182.973 198.44C182.833 198.187 182.643 197.993 182.403 197.86C182.17 197.727 181.903 197.66 181.603 197.66C181.303 197.66 181.033 197.727 180.793 197.86C180.56 197.993 180.37 198.187 180.223 198.44C180.083 198.687 180.013 198.983 180.013 199.33C180.013 199.67 180.083 199.967 180.223 200.22C180.37 200.473 180.56 200.667 180.793 200.8C181.033 200.933 181.303 201 181.603 201ZM183.223 202V200.74L183.273 199.32L183.173 197.9V194.58H184.413V202H183.223ZM187.708 202.07C187.262 202.07 186.832 202.013 186.418 201.9C186.012 201.78 185.688 201.637 185.448 201.47L185.928 200.52C186.168 200.673 186.455 200.8 186.788 200.9C187.122 201 187.455 201.05 187.788 201.05C188.182 201.05 188.465 200.997 188.638 200.89C188.818 200.783 188.908 200.64 188.908 200.46C188.908 200.313 188.848 200.203 188.728 200.13C188.608 200.05 188.452 199.99 188.258 199.95C188.065 199.91 187.848 199.873 187.608 199.84C187.375 199.807 187.138 199.763 186.898 199.71C186.665 199.65 186.452 199.567 186.258 199.46C186.065 199.347 185.908 199.197 185.788 199.01C185.668 198.823 185.608 198.577 185.608 198.27C185.608 197.93 185.705 197.637 185.898 197.39C186.092 197.137 186.362 196.943 186.708 196.81C187.062 196.67 187.478 196.6 187.958 196.6C188.318 196.6 188.682 196.64 189.048 196.72C189.415 196.8 189.718 196.913 189.958 197.06L189.478 198.01C189.225 197.857 188.968 197.753 188.708 197.7C188.455 197.64 188.202 197.61 187.948 197.61C187.568 197.61 187.285 197.667 187.098 197.78C186.918 197.893 186.828 198.037 186.828 198.21C186.828 198.37 186.888 198.49 187.008 198.57C187.128 198.65 187.285 198.713 187.478 198.76C187.672 198.807 187.885 198.847 188.118 198.88C188.358 198.907 188.595 198.95 188.828 199.01C189.062 199.07 189.275 199.153 189.468 199.26C189.668 199.36 189.828 199.503 189.948 199.69C190.068 199.877 190.128 200.12 190.128 200.42C190.128 200.753 190.028 201.043 189.828 201.29C189.635 201.537 189.358 201.73 188.998 201.87C188.638 202.003 188.208 202.07 187.708 202.07Z" fill="#4F4F4F"/>
<path d="M246.31 14.06C245.77 14.06 245.29 13.92 244.87 13.64C244.45 13.3533 244.12 12.9467 243.88 12.42C243.64 11.8867 243.52 11.2467 243.52 10.5C243.52 9.75333 243.64 9.11667 243.88 8.59C244.12 8.05667 244.45 7.65 244.87 7.37C245.29 7.08333 245.77 6.94 246.31 6.94C246.85 6.94 247.33 7.08333 247.75 7.37C248.17 7.65 248.5 8.05667 248.74 8.59C248.987 9.11667 249.11 9.75333 249.11 10.5C249.11 11.2467 248.987 11.8867 248.74 12.42C248.5 12.9467 248.17 13.3533 247.75 13.64C247.33 13.92 246.85 14.06 246.31 14.06ZM246.31 13.4C246.723 13.4 247.083 13.29 247.39 13.07C247.697 12.8433 247.937 12.5167 248.11 12.09C248.283 11.6567 248.37 11.1267 248.37 10.5C248.37 9.87333 248.283 9.34667 248.11 8.92C247.937 8.48667 247.697 8.16 247.39 7.94C247.083 7.71333 246.723 7.6 246.31 7.6C245.91 7.6 245.553 7.71333 245.24 7.94C244.927 8.16 244.683 8.48667 244.51 8.92C244.337 9.34667 244.25 9.87333 244.25 10.5C244.25 11.1267 244.337 11.6567 244.51 12.09C244.683 12.5167 244.927 12.8433 245.24 13.07C245.553 13.29 245.91 13.4 246.31 13.4Z" fill="#4F4F4F"/>
<path d="M184.36 14V8.1H182.04V7L187.98 7V8.1L185.66 8.1V14H184.36ZM191.842 14V12.92L191.772 12.69V10.8C191.772 10.4333 191.662 10.15 191.442 9.95C191.222 9.74333 190.889 9.64 190.442 9.64C190.142 9.64 189.846 9.68667 189.552 9.78C189.266 9.87333 189.022 10.0033 188.822 10.17L188.332 9.26C188.619 9.04 188.959 8.87667 189.352 8.77C189.752 8.65667 190.166 8.6 190.592 8.6C191.366 8.6 191.962 8.78667 192.382 9.16C192.809 9.52667 193.022 10.0967 193.022 10.87V14H191.842ZM190.162 14.07C189.762 14.07 189.412 14.0033 189.112 13.87C188.812 13.73 188.579 13.54 188.412 13.3C188.252 13.0533 188.172 12.7767 188.172 12.47C188.172 12.17 188.242 11.9 188.382 11.66C188.529 11.42 188.766 11.23 189.092 11.09C189.419 10.95 189.852 10.88 190.392 10.88H191.942V11.71H190.482C190.056 11.71 189.769 11.78 189.622 11.92C189.476 12.0533 189.402 12.22 189.402 12.42C189.402 12.6467 189.492 12.8267 189.672 12.96C189.852 13.0933 190.102 13.16 190.422 13.16C190.729 13.16 191.002 13.09 191.242 12.95C191.489 12.81 191.666 12.6033 191.772 12.33L191.982 13.08C191.862 13.3933 191.646 13.6367 191.332 13.81C191.026 13.9833 190.636 14.07 190.162 14.07ZM194.627 14V8.66H195.817V10.13L195.677 9.7C195.837 9.34 196.087 9.06667 196.427 8.88C196.773 8.69333 197.203 8.6 197.717 8.6V9.79C197.663 9.77667 197.613 9.77 197.567 9.77C197.52 9.76333 197.473 9.76 197.427 9.76C196.953 9.76 196.577 9.9 196.297 10.18C196.017 10.4533 195.877 10.8633 195.877 11.41V14H194.627ZM201.148 16.01C200.655 16.01 200.172 15.9433 199.698 15.81C199.232 15.6833 198.848 15.4967 198.548 15.25L199.108 14.31C199.342 14.5033 199.635 14.6567 199.988 14.77C200.348 14.89 200.712 14.95 201.078 14.95C201.665 14.95 202.095 14.8133 202.368 14.54C202.642 14.2733 202.778 13.87 202.778 13.33V12.38L202.878 11.17L202.838 9.96V8.66H204.028V13.19C204.028 14.1567 203.782 14.8667 203.288 15.32C202.795 15.78 202.082 16.01 201.148 16.01ZM200.988 13.76C200.482 13.76 200.022 13.6533 199.608 13.44C199.202 13.22 198.878 12.9167 198.638 12.53C198.405 12.1433 198.288 11.69 198.288 11.17C198.288 10.6567 198.405 10.2067 198.638 9.82C198.878 9.43333 199.202 9.13333 199.608 8.92C200.022 8.70667 200.482 8.6 200.988 8.6C201.442 8.6 201.848 8.69 202.208 8.87C202.568 9.05 202.855 9.33 203.068 9.71C203.288 10.09 203.398 10.5767 203.398 11.17C203.398 11.7633 203.288 12.2533 203.068 12.64C202.855 13.02 202.568 13.3033 202.208 13.49C201.848 13.67 201.442 13.76 200.988 13.76ZM201.178 12.7C201.492 12.7 201.772 12.6367 202.018 12.51C202.265 12.3767 202.455 12.1967 202.588 11.97C202.728 11.7367 202.798 11.47 202.798 11.17C202.798 10.87 202.728 10.6067 202.588 10.38C202.455 10.1467 202.265 9.97 202.018 9.85C201.772 9.72333 201.492 9.66 201.178 9.66C200.865 9.66 200.582 9.72333 200.328 9.85C200.082 9.97 199.888 10.1467 199.748 10.38C199.615 10.6067 199.548 10.87 199.548 11.17C199.548 11.47 199.615 11.7367 199.748 11.97C199.888 12.1967 200.082 12.3767 200.328 12.51C200.582 12.6367 200.865 12.7 201.178 12.7ZM208.182 14.07C207.588 14.07 207.068 13.9533 206.622 13.72C206.182 13.48 205.838 13.1533 205.592 12.74C205.352 12.3267 205.232 11.8567 205.232 11.33C205.232 10.7967 205.348 10.3267 205.582 9.92C205.822 9.50667 206.148 9.18333 206.562 8.95C206.982 8.71667 207.458 8.6 207.992 8.6C208.512 8.6 208.975 8.71333 209.382 8.94C209.788 9.16667 210.108 9.48667 210.342 9.9C210.575 10.3133 210.692 10.8 210.692 11.36C210.692 11.4133 210.688 11.4733 210.682 11.54C210.682 11.6067 210.678 11.67 210.672 11.73L206.222 11.73V10.9L210.012 10.9L209.522 11.16C209.528 10.8533 209.465 10.5833 209.332 10.35C209.198 10.1167 209.015 9.93333 208.782 9.8C208.555 9.66667 208.292 9.6 207.992 9.6C207.685 9.6 207.415 9.66667 207.182 9.8C206.955 9.93333 206.775 10.12 206.642 10.36C206.515 10.5933 206.452 10.87 206.452 11.19V11.39C206.452 11.71 206.525 11.9933 206.672 12.24C206.818 12.4867 207.025 12.6767 207.292 12.81C207.558 12.9433 207.865 13.01 208.212 13.01C208.512 13.01 208.782 12.9633 209.022 12.87C209.262 12.7767 209.475 12.63 209.662 12.43L210.332 13.2C210.092 13.48 209.788 13.6967 209.422 13.85C209.062 13.9967 208.648 14.07 208.182 14.07ZM213.902 14.07C213.316 14.07 212.862 13.92 212.542 13.62C212.222 13.3133 212.062 12.8633 212.062 12.27V7.48L213.312 7.48V12.24C213.312 12.4933 213.376 12.69 213.502 12.83C213.636 12.97 213.819 13.04 214.052 13.04C214.332 13.04 214.566 12.9667 214.752 12.82L215.102 13.71C214.956 13.83 214.776 13.92 214.562 13.98C214.349 14.04 214.129 14.07 213.902 14.07ZM211.182 9.7V8.7H214.742V9.7H211.182ZM216.531 10.26C216.304 10.26 216.111 10.1833 215.951 10.03C215.791 9.87 215.711 9.67 215.711 9.43C215.711 9.17667 215.791 8.97667 215.951 8.83C216.111 8.67667 216.304 8.6 216.531 8.6C216.757 8.6 216.951 8.67667 217.111 8.83C217.271 8.97667 217.351 9.17667 217.351 9.43C217.351 9.67 217.271 9.87 217.111 10.03C216.951 10.1833 216.757 10.26 216.531 10.26ZM216.531 14.07C216.304 14.07 216.111 13.9933 215.951 13.84C215.791 13.68 215.711 13.48 215.711 13.24C215.711 12.9867 215.791 12.7867 215.951 12.64C216.111 12.4867 216.304 12.41 216.531 12.41C216.757 12.41 216.951 12.4867 217.111 12.64C217.271 12.7867 217.351 12.9867 217.351 13.24C217.351 13.48 217.271 13.68 217.111 13.84C216.951 13.9933 216.757 14.07 216.531 14.07Z" fill="#4F4F4F"/>
<rect x="229" y="7" width="7" height="7" fill="#5397EF"/>
<path d="M289.74 14V7.3L290.06 7.64H288.09V7H290.46V14H289.74Z" fill="#4F4F4F"/>
<rect x="274" y="7" width="7" height="7" fill="#98C5FF"/>
<rect x="63" y="41" width="119.644" height="15" fill="#98C5FF"/>
<rect x="63" y="41" width="67.7228" height="15" fill="#5397EF"/>
<rect x="63" y="76" width="28.2178" height="15" fill="#98C5FF"/>
<rect x="63" y="76" width="21.4455" height="15" fill="#5397EF"/>
<rect x="63" y="111" width="123.03" height="15" fill="#98C5FF"/>
<rect x="63" y="111" width="53.0495" height="15" fill="#5397EF"/>
<rect x="63" y="146" width="200.911" height="15" fill="#98C5FF"/>
<rect x="63" y="146" width="186.238" height="15" fill="#5397EF"/>
</svg>
